<svg xmlns="http://www.w3.org/2000/svg" width="122" height="38" viewBox="0 0 122 38">
    <g fill="none" fill-rule="evenodd">
        <path fill="#0BB6D0" d="M5.955 33.67H.845a.638.638 0 0 1-.638-.64V5.78c0-.353.285-.639.638-.639h8.729a.638.638 0 1 1 0 1.278h-8.09v25.973h4.47a.638.638 0 1 1 0 1.277M16.174 33.67H8.438a.639.639 0 1 1 0-1.278h7.736a6.181 6.181 0 0 0 6.174-6.174 6.181 6.181 0 0 0-6.174-6.174.638.638 0 1 1 0-1.278 6.181 6.181 0 0 0 6.174-6.173 6.181 6.181 0 0 0-6.174-6.174H11.49a.638.638 0 1 1 0-1.278h4.684c4.108 0 7.451 3.343 7.451 7.452a7.462 7.462 0 0 1-4.434 6.812 7.462 7.462 0 0 1 4.434 6.813c0 4.108-3.343 7.451-7.451 7.451"/>
        <path fill="#0BB6D0" d="M11.49 37.501H5.955a.638.638 0 0 1-.639-.638V10.109a.638.638 0 1 1 1.277 0v26.115h4.258V33.03a.638.638 0 1 1 1.278 0v3.833a.638.638 0 0 1-.639.638"/>
        <path fill="#0BB6D0" d="M11.49 29.056a.638.638 0 0 1-.639-.638V2.16H6.593v3.62a.638.638 0 1 1-1.277 0V1.522c0-.353.286-.639.639-.639h5.535c.353 0 .639.286.639.639v26.896a.638.638 0 0 1-.639.638"/>
        <path fill="#FFF" d="M40.03 19.831h-4.257a.638.638 0 1 1 0-1.277h4.258c1.056 0 1.916-.86 1.916-1.916 0-1.057-.86-1.917-1.916-1.917h-6.174v4.471a.638.638 0 1 1-1.278 0v-5.11c0-.352.286-.638.639-.638h6.813a3.197 3.197 0 0 1 3.193 3.194 3.197 3.197 0 0 1-3.193 3.193"/>
        <path fill="#FFF" d="M40.67 25.366h-7.452a.638.638 0 0 1-.639-.638v-5.536a.638.638 0 1 1 1.278 0v4.897h6.812a2.131 2.131 0 0 0 2.13-2.13 2.131 2.131 0 0 0-2.13-2.128.638.638 0 1 1 0-1.277 3.41 3.41 0 0 1 3.407 3.406 3.41 3.41 0 0 1-3.407 3.406M51.953 25.366a.638.638 0 0 1-.639-.638V14.083a.638.638 0 1 1 1.277 0v10.645a.638.638 0 0 1-.638.638M64.3 25.366a.638.638 0 0 1-.638-.638v-7.665a.638.638 0 1 1 1.277 0v7.665a.638.638 0 0 1-.638.638M69.623 15.147H58.978a.638.638 0 1 1 0-1.277h10.645a.638.638 0 1 1 0 1.277"/>
        <path fill="#0BB6D0" d="M85.803 15.147H76.01a.638.638 0 1 1 0-1.277h9.793a.638.638 0 1 1 0 1.277M84.1 19.831h-8.09a.638.638 0 1 1 0-1.277h8.09a.638.638 0 1 1 0 1.277M85.803 25.366H76.01a.638.638 0 1 1 0-1.277h9.793a.638.638 0 1 1 0 1.277M103.048 15.147h-9.793a.638.638 0 1 1 0-1.277h9.793a.638.638 0 1 1 0 1.277M101.345 19.831h-8.09a.638.638 0 1 1 0-1.277h8.09a.638.638 0 1 1 0 1.277M103.048 25.366h-9.793a.638.638 0 1 1 0-1.277h9.793a.638.638 0 1 1 0 1.277M120.505 25.366h-9.793a.638.638 0 0 1-.639-.638V14.083a.638.638 0 1 1 1.278 0v10.006h8.515V14.083a.638.638 0 1 1 1.278 0v10.645a.638.638 0 0 1-.639.638"/>
    </g>
</svg>
